<svg xmlns="http://www.w3.org/2000/svg" xmlns:svg="http://www.w3.org/2000/svg" id="Capa_1" width="12.963" height="13.197" x="0" y="0" version="1.1" viewBox="0 0 12.963 13.197" xml:space="preserve"><metadata id="metadata43"/><g id="g6" transform="matrix(0.03566737,0,0,0.03566737,0.21779251,0.33479739)" style="fill:#fff"><path id="path2" d="m 258.915,27.652 c -1.161,-0.642 -2.53,-0.794 -3.803,-0.428 -1.275,0.367 -2.35,1.226 -2.992,2.387 l -21.758,39.39 c -1.335,2.417 -0.458,5.459 1.96,6.794 37.498,20.713 60.793,60.155 60.793,102.933 0,64.79 -52.71,117.5 -117.5,117.5 -64.79,0 -117.5,-52.71 -117.5,-117.5 0,-42.778 23.294,-82.22 60.792,-102.933 2.418,-1.335 3.294,-4.377 1.96,-6.794 L 99.109,29.611 c -0.642,-1.161 -1.717,-2.02 -2.992,-2.387 -1.272,-0.368 -2.642,-0.214 -3.803,0.428 -55.02,30.391 -89.2,88.28 -89.2,151.076 0,95.117 77.383,172.5 172.5,172.5 95.117,0 172.5,-77.383 172.5,-172.5 0,-62.795 -34.179,-120.685 -89.199,-151.076 z" style="fill:#fff"/><path id="path4" d="m 153.114,181.16 h 45 c 2.761,0 5,-2.239 5,-5 V 5 c 0,-2.761 -2.239,-5 -5,-5 h -45 c -2.761,0 -5,2.239 -5,5 v 171.16 c 0,2.761 2.239,5 5,5 z" style="fill:#fff"/></g></svg>